<?xml version="1.0" encoding="UTF-8"?>
<!DOCTYPE svg PUBLIC "-//W3C//DTD SVG 1.1//EN" "http://www.w3.org/Graphics/SVG/1.1/DTD/svg11.dtd">
<!-- Creator: CorelDRAW -->
<svg xmlns="http://www.w3.org/2000/svg" xml:space="preserve" width="46px" height="46px" style="shape-rendering:geometricPrecision; text-rendering:geometricPrecision; image-rendering:optimizeQuality; fill-rule:evenodd; clip-rule:evenodd"
viewBox="0 0 0.275595 0.275636"
 xmlns:xlink="http://www.w3.org/1999/xlink">
 <defs>
  <style type="text/css">
   <![CDATA[
    .str0 {stroke:#1F1A17;stroke-width:0.00958667}
    .fil0 {fill:none}
    .fil1 {fill:#1F1A17;fill-rule:nonzero}
   ]]>
  </style>
 </defs>
 <g id="图层_x0020_1">
  <metadata id="CorelCorpID_0Corel-Layer"/>
  <rect class="fil0 str0" x="0.0608274" y="0.0969404" width="0.153938" height="0.0817935"/>
  <line class="fil0 str0" x1="0.137355" y1="0" x2="0.137355" y2= "0.0946684" />
  <line class="fil0 str0" x1="0.137355" y1="0.180249" x2="0.137355" y2= "0.274917" />
  <line class="fil0 str0" x1="0.0999458" y1="0.0980717" x2="0.0999458" y2= "0.18067" />
  <path class="fil1" d="M0.0668598 0.141578l0 -0.0195137 0.003166 0 0 0.0195137c-0.00010785,0.00811032 0.00327864,0.0121152 0.0101739,0.0120001 0.00699827,0 0.0104495,-0.00399764 0.0103368,-0.0120001l0 -0.0195137 0.00333616 0 0 0.0195137c0.000112643,0.0097808 -0.00450334,0.0146125 -0.0138384,0.0145046 -0.00878618,0.00010785 -0.0131745,-0.00472383 -0.0131745,-0.0145046z"/>
  <rect class="fil0" y="4.07448e-005" width="0.275596" height="0.275596"/>
 </g>
</svg>
