<?xml version="1.0" encoding="UTF-8"?>
<!DOCTYPE svg PUBLIC "-//W3C//DTD SVG 1.1//EN" "http://www.w3.org/Graphics/SVG/1.1/DTD/svg11.dtd">
<!-- Creator: CorelDRAW -->
<svg xmlns="http://www.w3.org/2000/svg" xml:space="preserve" width="46px" height="46px" style="shape-rendering:geometricPrecision; text-rendering:geometricPrecision; image-rendering:optimizeQuality; fill-rule:evenodd; clip-rule:evenodd"
viewBox="0 0 1.0657 1.08236"
 xmlns:xlink="http://www.w3.org/1999/xlink">
 <defs>
  <style type="text/css">
   <![CDATA[
    .str0 {stroke:#1F1A17;stroke-width:0.0476216}
    .fil0 {fill:none}
    .fil1 {fill:#1F1A17}
   ]]>
  </style>
 </defs>
 <g id="图层_x0020_1">
  <metadata id="CorelCorpID_0Corel-Layer"/>
  <g id="_276440152">
   <g>
    <path id="_275846088" class="fil0 str0" d="M0.530876 0.196882c0.141869,0 0.256918,0.115049 0.256918,0.256918 0,0.141869 -0.115049,0.256918 -0.256918,0.256918 -0.141869,0 -0.256918,-0.115049 -0.256918,-0.256918 0,-0.141869 0.115049,-0.256918 0.256918,-0.256918z"/>
   </g>
   <g>
    <path class="fil0 str0" d="M0.349057 0.54471c0.141869,0 0.256918,0.115049 0.256918,0.256918 0,0.141869 -0.115049,0.256918 -0.256918,0.256918 -0.141869,0 -0.256918,-0.115049 -0.256918,-0.256918 0,-0.141869 0.115049,-0.256918 0.256918,-0.256918z"/>
   </g>
   <g>
    <path class="fil0 str0" d="M0.716648 0.54471c0.141869,0 0.256918,0.115049 0.256918,0.256918 0,0.141869 -0.115049,0.256918 -0.256918,0.256918 -0.141869,0 -0.256918,-0.115049 -0.256918,-0.256918 0,-0.141869 0.115049,-0.256918 0.256918,-0.256918z"/>
   </g>
   <rect class="fil1" x="0.506494" y="0.00715752" width="0.0487645" height="0.185772"/>
  </g>
  <rect class="fil0" width="1.0657" height="1.0657"/>
 </g>
</svg>
