<?xml version="1.0" encoding="UTF-8"?>
<!DOCTYPE svg PUBLIC "-//W3C//DTD SVG 1.1//EN" "http://www.w3.org/Graphics/SVG/1.1/DTD/svg11.dtd">
<!-- Creator: CorelDRAW -->
<svg xmlns="http://www.w3.org/2000/svg" xml:space="preserve" width="46px" height="46px" style="shape-rendering:geometricPrecision; text-rendering:geometricPrecision; image-rendering:optimizeQuality; fill-rule:evenodd; clip-rule:evenodd"
viewBox="0 0 1.30186 1.30186"
 xmlns:xlink="http://www.w3.org/1999/xlink">
 <defs>
  <style type="text/css">
   <![CDATA[
    .str0 {stroke:#1F1A17;stroke-width:0.0465395}
    .fil0 {fill:none}
   ]]>
  </style>
 </defs>
 <g id="图层_x0020_1">
  <metadata id="CorelCorpID_0Corel-Layer"/>
  <g id="_276440200">
   <path id="_276079248" class="fil0 str0" d="M0.00154162 0.0345148l0.436843 0.000267602c0.0788378,4.0722e-005 0.142783,0.0639394 0.142783,0.142783 0,0.0788436 -0.0639394,0.142783 -0.142783,0.142783"/>
   <path id="_276783576" class="fil0 str0" d="M0.00341483 1.26734l0.443556 -0.000267602c0.0788378,-4.0722e-005 0.142783,-0.0639394 0.142783,-0.142783 0,-0.0788436 -0.0639394,-0.142783 -0.142783,-0.142783"/>
   <path id="_275847384" class="fil0 str0" d="M0.423224 0.648452c0.0919503,8.1444e-005 0.16653,0.0745737 0.16653,0.16653 0,0.0919561 -0.0745737,0.16653 -0.16653,0.16653"/>
   <path id="_276078984" class="fil0 str0" d="M0.423224 0.648452c0.0919503,-8.1444e-005 0.16653,-0.0732996 0.16653,-0.163685 0,-0.0903854 -0.0745737,-0.163685 -0.16653,-0.163685"/>
   <path id="_276786600" class="fil0 str0" d="M1.29766 0.0345148l-0.434178 0.000267602c-0.0788378,4.0722e-005 -0.142783,0.0639394 -0.142783,0.142783 0,0.0788436 0.0639394,0.142783 0.142783,0.142783"/>
   <path id="_276784176" class="fil0 str0" d="M1.2997 1.26734l-0.444807 -0.000267602c-0.0788378,-4.0722e-005 -0.142783,-0.0639394 -0.142783,-0.142783 0,-0.0788436 0.0639394,-0.142783 0.142783,-0.142783"/>
   <path id="_276785808" class="fil0 str0" d="M0.878642 0.648452c-0.0919503,8.1444e-005 -0.16653,0.0745737 -0.16653,0.16653 0,0.0919561 0.0745737,0.16653 0.16653,0.16653"/>
   <path id="_276786312" class="fil0 str0" d="M0.878642 0.648452c-0.0919503,-8.1444e-005 -0.16653,-0.0732996 -0.16653,-0.163685 0,-0.0903854 0.0745737,-0.163685 0.16653,-0.163685"/>
  </g>
  <rect class="fil0" width="1.30186" height="1.30186"/>
 </g>
</svg>
