<?xml version="1.0" encoding="UTF-8"?>
<!DOCTYPE svg PUBLIC "-//W3C//DTD SVG 1.1//EN" "http://www.w3.org/Graphics/SVG/1.1/DTD/svg11.dtd">
<!-- Creator: CorelDRAW -->
<svg xmlns="http://www.w3.org/2000/svg" xml:space="preserve" width="46px" height="46px" style="shape-rendering:geometricPrecision; text-rendering:geometricPrecision; image-rendering:optimizeQuality; fill-rule:evenodd; clip-rule:evenodd"
viewBox="0 0 0.783755 0.783755"
 xmlns:xlink="http://www.w3.org/1999/xlink">
 <defs>
  <style type="text/css">
   <![CDATA[
    .str0 {stroke:#1F1A17;stroke-width:0.0138723}
    .fil0 {fill:none}
   ]]>
  </style>
 </defs>
 <g id="图层_x0020_1">
  <metadata id="CorelCorpID_0Corel-Layer"/>
  <g id="_304188056">
   <path id="_65997632" class="fil0 str0" d="M0.00802741 0.0120781l0.122709 7.86095e-005c0.0221447,9.24817e-006 0.0401047,0.0181542 0.0401047,0.040544 0,0.0223852 -0.0179599,0.0405394 -0.0401047,0.0405394"/>
   <path id="_304188680" class="fil0 str0" d="M0.00855456 0.36214l0.124591 -7.39854e-005c0.0221494,-1.38723e-005 0.0401093,-0.0181588 0.0401093,-0.040544 0,-0.0223898 -0.0179599,-0.040544 -0.0401093,-0.040544"/>
   <path id="_302116112" class="fil0 str0" d="M0.126478 0.186406c0.0258301,2.31204e-005 0.0467773,0.0211737 0.0467773,0.0472859 0,0.0261122 -0.0209471,0.0472859 -0.0467773,0.0472859"/>
   <path id="_302116184" class="fil0 str0" d="M0.126478 0.186406c0.0258301,-2.31204e-005 0.0467773,-0.020813 0.0467773,-0.0464767 0,-0.0256637 -0.0209471,-0.0464813 -0.0467773,-0.0464813"/>
   <path id="_302232992" class="fil0 str0" d="M0.00802741 0.423289l0.122709 7.86095e-005c0.0221447,9.24817e-006 0.0401047,0.0181542 0.0401047,0.040544 0,0.0223852 -0.0179599,0.0405394 -0.0401047,0.0405394"/>
   <path id="_302910920" class="fil0 str0" d="M0.00855456 0.773351l0.124591 -7.39854e-005c0.0221494,-1.38723e-005 0.0401093,-0.0181588 0.0401093,-0.040544 0,-0.0223898 -0.0179599,-0.040544 -0.0401093,-0.040544"/>
   <path id="_304189448" class="fil0 str0" d="M0.126478 0.597617c0.0258301,2.31204e-005 0.0467773,0.0211737 0.0467773,0.0472859 0,0.0261122 -0.0209471,0.0472859 -0.0467773,0.0472859"/>
   <path id="_302115632" class="fil0 str0" d="M0.126478 0.597617c0.0258301,-2.31204e-005 0.0467773,-0.020813 0.0467773,-0.0464767 0,-0.0256637 -0.0209471,-0.0464813 -0.0467773,-0.0464813"/>
   <path id="_302913008" class="fil0 str0" d="M0.406735 0.216828l-0.122709 7.86095e-005c-0.0221447,9.24817e-006 -0.0401047,0.0181542 -0.0401047,0.040544 0,0.0223852 0.0179599,0.0405394 0.0401047,0.0405394"/>
   <path id="_302910128" class="fil0 str0" d="M0.406207 0.56689l-0.124591 -7.39854e-005c-0.0221494,-1.38723e-005 -0.0401093,-0.0181588 -0.0401093,-0.040544 0,-0.0223898 0.0179599,-0.040544 0.0401093,-0.040544"/>
   <path id="_302911160" class="fil0 str0" d="M0.288284 0.391156c-0.0258301,2.31204e-005 -0.0467773,0.0211737 -0.0467773,0.0472859 0,0.0261122 0.0209471,0.0472859 0.0467773,0.0472859"/>
   <path id="_302913344" class="fil0 str0" d="M0.288284 0.391156c-0.0258301,-2.31204e-005 -0.0467773,-0.020813 -0.0467773,-0.0464767 0,-0.0256637 0.0209471,-0.0464813 0.0467773,-0.0464813"/>
  </g>
  <rect class="fil0" width="0.783755" height="0.783755"/>
 </g>
</svg>
