<?xml version="1.0" encoding="UTF-8"?>
<!DOCTYPE svg PUBLIC "-//W3C//DTD SVG 1.1//EN" "http://www.w3.org/Graphics/SVG/1.1/DTD/svg11.dtd">
<!-- Creator: CorelDRAW -->
<svg xmlns="http://www.w3.org/2000/svg" xml:space="preserve" width="46px" height="46px" style="shape-rendering:geometricPrecision; text-rendering:geometricPrecision; image-rendering:optimizeQuality; fill-rule:evenodd; clip-rule:evenodd"
viewBox="0 0 0.377009 0.377009"
 xmlns:xlink="http://www.w3.org/1999/xlink">
 <defs>
  <style type="text/css">
   <![CDATA[
    .str1 {stroke:#1F1A17;stroke-width:0.00924857}
    .str2 {stroke:#1F1A17;stroke-width:0.0138729}
    .str0 {stroke:#1F1A17;stroke-width:0.0138729}
    .fil0 {fill:none}
    .fil1 {fill:#1F1A17}
   ]]>
  </style>
 </defs>
 <g id="图层_x0020_1">
  <metadata id="CorelCorpID_0Corel-Layer"/>
  <g>
   <path class="fil0 str0" d="M0.188504 0.068999c0.046377,0 0.0839909,0.0376139 0.0839909,0.0839863 0,0.0463723 -0.0376139,0.083977 -0.0839909,0.083977 -0.046377,0 -0.0839817,-0.0376047 -0.0839817,-0.083977 0,-0.0463723 0.0376047,-0.0839863 0.0839817,-0.0839863z"/>
  </g>
  <g>
   <path class="fil0 str0" d="M0.188504 0.199607c0.046377,0 0.0839909,0.0376047 0.0839909,0.083977 0,0.046377 -0.0376139,0.0839817 -0.0839909,0.0839817 -0.046377,0 -0.0839817,-0.0376047 -0.0839817,-0.0839817 0,-0.0463723 0.0376047,-0.083977 0.0839817,-0.083977z"/>
  </g>
  <rect class="fil1" x="0.180139" y="0.000267492" width="0.016734" height="0.0637495"/>
  <polygon class="fil0 str1" points="0.192185,0.107478 0.233679,0.17625 0.150692,0.17625 "/>
  <polyline class="fil0 str2" points="0.150271,0.242132 0.192033,0.282572 0.230715,0.24345 "/>
  <line class="fil0 str2" x1="0.191149" y1="0.282132" x2="0.191149" y2= "0.330049" />
  <line class="fil0 str2" x1="0.234844" y1="0.283066" x2="0.186932" y2= "0.283066" />
  <rect class="fil0" width="0.377009" height="0.377009"/>
 </g>
</svg>
