<?xml version="1.0" encoding="UTF-8"?>
<!DOCTYPE svg PUBLIC "-//W3C//DTD SVG 1.1//EN" "http://www.w3.org/Graphics/SVG/1.1/DTD/svg11.dtd">
<!-- Creator: CorelDRAW -->
<svg xmlns="http://www.w3.org/2000/svg" xml:space="preserve" width="46px" height="46px" style="shape-rendering:geometricPrecision; text-rendering:geometricPrecision; image-rendering:optimizeQuality; fill-rule:evenodd; clip-rule:evenodd"
viewBox="0 0 0.411941 0.412169"
 xmlns:xlink="http://www.w3.org/1999/xlink">
 <defs>
  <style type="text/css">
   <![CDATA[
    .str2 {stroke:#1F1A17;stroke-width:0.00859679}
    .str1 {stroke:#1F1A17;stroke-width:0.0128952}
    .str0 {stroke:#1F1A17;stroke-width:0.0128952}
    .fil0 {fill:none}
   ]]>
  </style>
 </defs>
 <g id="图层_x0020_1">
  <metadata id="CorelCorpID_0Corel-Layer"/>
  <g id="_304186448">
   <g>
    <path id="_302233088" class="fil0 str0" d="M0.20735 0.0685336c0.0431086,0 0.0780717,0.0349631 0.0780717,0.0780674 0,0.0431043 -0.0349631,0.0780588 -0.0780717,0.0780588 -0.0431086,0 -0.0780631,-0.0349545 -0.0780631,-0.0780588 0,-0.0431043 0.0349545,-0.0780674 0.0780631,-0.0780674z"/>
   </g>
   <g>
    <path class="fil0 str0" d="M0.20735 0.189937c0.0431086,0 0.0780717,0.0349545 0.0780717,0.0780588 0,0.0431086 -0.0349631,0.0780631 -0.0780717,0.0780631 -0.0431086,0 -0.0780631,-0.0349545 -0.0780631,-0.0780631 0,-0.0431043 0.0349545,-0.0780588 0.0780631,-0.0780588z"/>
   </g>
   <polyline class="fil0 str1" points="0.171295,0.106858 0.210114,0.144452 0.24607,0.108083 "/>
   <line class="fil0 str1" x1="0.209293" y1="0.144044" x2="0.209293" y2= "0.188579" />
  </g>
  <polygon class="fil0 str2" points="0.210772,0.241415 0.249341,0.305341 0.172202,0.305341 "/>
  <line class="fil0 str1" x1="0.20597" y1="0.000361065" x2="0.20597" y2= "0.0684519" />
  <line class="fil0 str2" x1="0.232805" y1="0.012547" x2="0.18095" y2= "0.0264394" />
  <line class="fil0 str2" x1="0.232805" y1="0.0251542" x2="0.18095" y2= "0.0390466" />
  <line class="fil0 str2" x1="0.232805" y1="0.0381826" x2="0.18095" y2= "0.0520751" />
  <line class="fil0 str1" x1="0.20597" y1="0.344078" x2="0.20597" y2= "0.412169" />
  <line class="fil0 str2" x1="0.232805" y1="0.356264" x2="0.18095" y2= "0.370156" />
  <line class="fil0 str2" x1="0.232805" y1="0.368871" x2="0.18095" y2= "0.382763" />
  <line class="fil0 str2" x1="0.232805" y1="0.381899" x2="0.18095" y2= "0.395792" />
  <rect class="fil0" width="0.411941" height="0.411941"/>
 </g>
</svg>
