<?xml version="1.0" encoding="UTF-8"?>
<!DOCTYPE svg PUBLIC "-//W3C//DTD SVG 1.1//EN" "http://www.w3.org/Graphics/SVG/1.1/DTD/svg11.dtd">
<!-- Creator: CorelDRAW -->
<svg xmlns="http://www.w3.org/2000/svg" xml:space="preserve" width="46px" height="46px" style="shape-rendering:geometricPrecision; text-rendering:geometricPrecision; image-rendering:optimizeQuality; fill-rule:evenodd; clip-rule:evenodd"
viewBox="0 0 0.600268 0.600268"
 xmlns:xlink="http://www.w3.org/1999/xlink">
 <defs>
  <style type="text/css">
   <![CDATA[
    .str0 {stroke:#1F1A17;stroke-width:0.00812386}
    .fil0 {fill:none}
   ]]>
  </style>
 </defs>
 <g id="图层_x0020_1">
  <metadata id="CorelCorpID_0Corel-Layer"/>
  <path class="fil0 str0" d="M0.208462 0.109632c0.0138471,0 0.0250743,-0.0112272 0.0250743,-0.0250743 0,-0.0138471 -0.0112272,-0.0250743 -0.0250743,-0.0250743"/>
  <path class="fil0 str0" d="M0.208462 0.109632c0.0138471,0 0.0250743,0.0112272 0.0250743,0.0250743 0,0.0138471 -0.0112272,0.0250743 -0.0250743,0.0250743"/>
  <path class="fil0 str0" d="M0.208462 0.209929c0.0138471,0 0.0250743,-0.0112272 0.0250743,-0.0250743 0,-0.0138471 -0.0112272,-0.0250743 -0.0250743,-0.0250743"/>
  <path class="fil0 str0" d="M0.208462 0.209929c0.0138471,0 0.0250743,0.0112272 0.0250743,0.0250743 0,0.0138471 -0.0112272,0.0250743 -0.0250743,0.0250743"/>
  <line class="fil0 str0" x1="0.210087" y1="0.00359075" x2="0.210087" y2= "0.0634636" />
  <line class="fil0 str0" x1="0.210087" y1="0.257847" x2="0.210087" y2= "0.292288" />
  <path class="fil0 str0" d="M0.283868 0.109632c0.0138471,0 0.0250743,-0.0112272 0.0250743,-0.0250743 0,-0.0138471 -0.0112272,-0.0250743 -0.0250743,-0.0250743"/>
  <path class="fil0 str0" d="M0.283868 0.109632c0.0138471,0 0.0250743,0.0112272 0.0250743,0.0250743 0,0.0138471 -0.0112272,0.0250743 -0.0250743,0.0250743"/>
  <path class="fil0 str0" d="M0.283868 0.209929c0.0138471,0 0.0250743,-0.0112272 0.0250743,-0.0250743 0,-0.0138471 -0.0112272,-0.0250743 -0.0250743,-0.0250743"/>
  <path class="fil0 str0" d="M0.283868 0.209929c0.0138471,0 0.0250743,0.0112272 0.0250743,0.0250743 0,0.0138471 -0.0112272,0.0250743 -0.0250743,0.0250743"/>
  <line class="fil0 str0" x1="0.285493" y1="0.00359075" x2="0.285493" y2= "0.0634636" />
  <line class="fil0 str0" x1="0.285493" y1="0.257847" x2="0.285493" y2= "0.292288" />
  <path class="fil0 str0" d="M0.356581 0.109632c0.0138471,0 0.0250743,-0.0112272 0.0250743,-0.0250743 0,-0.0138471 -0.0112272,-0.0250743 -0.0250743,-0.0250743"/>
  <path class="fil0 str0" d="M0.356581 0.109632c0.0138471,0 0.0250743,0.0112272 0.0250743,0.0250743 0,0.0138471 -0.0112272,0.0250743 -0.0250743,0.0250743"/>
  <path class="fil0 str0" d="M0.356581 0.209929c0.0138471,0 0.0250743,-0.0112272 0.0250743,-0.0250743 0,-0.0138471 -0.0112272,-0.0250743 -0.0250743,-0.0250743"/>
  <path class="fil0 str0" d="M0.356581 0.209929c0.0138471,0 0.0250743,0.0112272 0.0250743,0.0250743 0,0.0138471 -0.0112272,0.0250743 -0.0250743,0.0250743"/>
  <line class="fil0 str0" x1="0.358205" y1="0.00359075" x2="0.358205" y2= "0.0634636" />
  <line class="fil0 str0" x1="0.358205" y1="0.257847" x2="0.358205" y2= "0.292288" />
  <line class="fil0 str0" x1="0.35853" y1="0.288868" x2="0.212463" y2= "0.288868" />
  <path class="fil0 str0" d="M0.205773 0.491876c0.0138471,0 0.0250743,0.0112272 0.0250743,0.0250743 0,0.0138471 -0.0112272,0.0250743 -0.0250743,0.0250743"/>
  <path class="fil0 str0" d="M0.205773 0.491876c0.0138471,0 0.0250743,-0.0112272 0.0250743,-0.0250743 0,-0.0138471 -0.0112272,-0.0250743 -0.0250743,-0.0250743"/>
  <path class="fil0 str0" d="M0.205773 0.391578c0.0138471,0 0.0250743,0.0112272 0.0250743,0.0250743 0,0.0138471 -0.0112272,0.0250743 -0.0250743,0.0250743"/>
  <path class="fil0 str0" d="M0.205773 0.391578c0.0138471,0 0.0250743,-0.0112272 0.0250743,-0.0250743 0,-0.0138471 -0.0112272,-0.0250743 -0.0250743,-0.0250743"/>
  <line class="fil0 str0" x1="0.207398" y1="0.597916" x2="0.207398" y2= "0.538043" />
  <path class="fil0 str0" d="M0.281179 0.491876c0.0138471,0 0.0250743,0.0112272 0.0250743,0.0250743 0,0.0138471 -0.0112272,0.0250743 -0.0250743,0.0250743"/>
  <path class="fil0 str0" d="M0.281179 0.491876c0.0138471,0 0.0250743,-0.0112272 0.0250743,-0.0250743 0,-0.0138471 -0.0112272,-0.0250743 -0.0250743,-0.0250743"/>
  <path class="fil0 str0" d="M0.281179 0.391578c0.0138471,0 0.0250743,0.0112272 0.0250743,0.0250743 0,0.0138471 -0.0112272,0.0250743 -0.0250743,0.0250743"/>
  <path class="fil0 str0" d="M0.281179 0.391578c0.0138471,0 0.0250743,-0.0112272 0.0250743,-0.0250743 0,-0.0138471 -0.0112272,-0.0250743 -0.0250743,-0.0250743"/>
  <line class="fil0 str0" x1="0.282804" y1="0.597916" x2="0.282804" y2= "0.538043" />
  <path class="fil0 str0" d="M0.353892 0.491876c0.0138471,0 0.0250743,0.0112272 0.0250743,0.0250743 0,0.0138471 -0.0112272,0.0250743 -0.0250743,0.0250743"/>
  <path class="fil0 str0" d="M0.353892 0.491876c0.0138471,0 0.0250743,-0.0112272 0.0250743,-0.0250743 0,-0.0138471 -0.0112272,-0.0250743 -0.0250743,-0.0250743"/>
  <path class="fil0 str0" d="M0.353892 0.391578c0.0138471,0 0.0250743,0.0112272 0.0250743,0.0250743 0,0.0138471 -0.0112272,0.0250743 -0.0250743,0.0250743"/>
  <path class="fil0 str0" d="M0.353892 0.391578c0.0138471,0 0.0250743,-0.0112272 0.0250743,-0.0250743 0,-0.0138471 -0.0112272,-0.0250743 -0.0250743,-0.0250743"/>
  <line class="fil0 str0" x1="0.355516" y1="0.597916" x2="0.355516" y2= "0.538043" />
  <polyline class="fil0 str0" points="0.354412,0.342705 0.354412,0.31642 0.185638,0.31642 0.185638,0.543555 0.207159,0.543555 "/>
  <polyline class="fil0 str0" points="0.209173,0.340686 0.256243,0.340686 0.256243,0.544234 0.283811,0.544234 "/>
  <polyline class="fil0 str0" points="0.283137,0.340686 0.330207,0.340686 0.330207,0.544234 0.357775,0.544234 "/>
  <rect class="fil0" width="0.600268" height="0.600268"/>
 </g>
</svg>
