<?xml version="1.0" encoding="UTF-8"?>
<!DOCTYPE svg PUBLIC "-//W3C//DTD SVG 1.1//EN" "http://www.w3.org/Graphics/SVG/1.1/DTD/svg11.dtd">
<!-- Creator: CorelDRAW -->
<svg xmlns="http://www.w3.org/2000/svg" xml:space="preserve" width="46px" height="46px" style="shape-rendering:geometricPrecision; text-rendering:geometricPrecision; image-rendering:optimizeQuality; fill-rule:evenodd; clip-rule:evenodd"
viewBox="0 0 0.637001 0.637001"
 xmlns:xlink="http://www.w3.org/1999/xlink">
 <defs>
  <style type="text/css">
   <![CDATA[
    .str0 {stroke:#1F1A17;stroke-width:0.008621}
    .fil0 {fill:none}
   ]]>
  </style>
 </defs>
 <g id="图层_x0020_1">
  <metadata id="CorelCorpID_0Corel-Layer"/>
  <path class="fil0 str0" d="M0.22378 0.519238c0.0146945,0 0.0266087,0.0119142 0.0266087,0.0266087 0,0.0146945 -0.0119142,0.0266087 -0.0266087,0.0266087"/>
  <path class="fil0 str0" d="M0.22378 0.519238c0.0146945,0 0.0266087,-0.0119142 0.0266087,-0.0266087 0,-0.0146945 -0.0119142,-0.0266087 -0.0266087,-0.0266087"/>
  <path class="fil0 str0" d="M0.22378 0.412803c0.0146945,0 0.0266087,0.0119142 0.0266087,0.0266087 0,0.0146945 -0.0119142,0.0266087 -0.0266087,0.0266087"/>
  <path class="fil0 str0" d="M0.22378 0.412803c0.0146945,0 0.0266087,-0.0119142 0.0266087,-0.0266087 0,-0.0146945 -0.0119142,-0.0266087 -0.0266087,-0.0266087"/>
  <line class="fil0 str0" x1="0.225504" y1="0.631768" x2="0.225504" y2= "0.568231" />
  <path class="fil0 str0" d="M0.3038 0.519238c0.0146945,0 0.0266087,0.0119142 0.0266087,0.0266087 0,0.0146945 -0.0119142,0.0266087 -0.0266087,0.0266087"/>
  <path class="fil0 str0" d="M0.3038 0.519238c0.0146945,0 0.0266087,-0.0119142 0.0266087,-0.0266087 0,-0.0146945 -0.0119142,-0.0266087 -0.0266087,-0.0266087"/>
  <path class="fil0 str0" d="M0.3038 0.412803c0.0146945,0 0.0266087,0.0119142 0.0266087,0.0266087 0,0.0146945 -0.0119142,0.0266087 -0.0266087,0.0266087"/>
  <path class="fil0 str0" d="M0.3038 0.412803c0.0146945,0 0.0266087,-0.0119142 0.0266087,-0.0266087 0,-0.0146945 -0.0119142,-0.0266087 -0.0266087,-0.0266087"/>
  <line class="fil0 str0" x1="0.305524" y1="0.631768" x2="0.305524" y2= "0.568231" />
  <path class="fil0 str0" d="M0.380962 0.519238c0.0146945,0 0.0266087,0.0119142 0.0266087,0.0266087 0,0.0146945 -0.0119142,0.0266087 -0.0266087,0.0266087"/>
  <path class="fil0 str0" d="M0.380962 0.519238c0.0146945,0 0.0266087,-0.0119142 0.0266087,-0.0266087 0,-0.0146945 -0.0119142,-0.0266087 -0.0266087,-0.0266087"/>
  <path class="fil0 str0" d="M0.380962 0.412803c0.0146945,0 0.0266087,0.0119142 0.0266087,0.0266087 0,0.0146945 -0.0119142,0.0266087 -0.0266087,0.0266087"/>
  <path class="fil0 str0" d="M0.380962 0.412803c0.0146945,0 0.0266087,-0.0119142 0.0266087,-0.0266087 0,-0.0146945 -0.0119142,-0.0266087 -0.0266087,-0.0266087"/>
  <line class="fil0 str0" x1="0.382686" y1="0.631768" x2="0.382686" y2= "0.568231" />
  <line class="fil0 str0" x1="0.426834" y1="0.359332" x2="0.218723" y2= "0.359332" />
  <path class="fil0 str0" d="M0.220926 0.113603c0.0146945,0 0.0266087,-0.0119142 0.0266087,-0.0266087 0,-0.0146945 -0.0119142,-0.0266087 -0.0266087,-0.0266087"/>
  <path class="fil0 str0" d="M0.220926 0.113603c0.0146945,0 0.0266087,0.0119142 0.0266087,0.0266087 0,0.0146945 -0.0119142,0.0266087 -0.0266087,0.0266087"/>
  <path class="fil0 str0" d="M0.220926 0.220038c0.0146945,0 0.0266087,-0.0119142 0.0266087,-0.0266087 0,-0.0146945 -0.0119142,-0.0266087 -0.0266087,-0.0266087"/>
  <path class="fil0 str0" d="M0.220926 0.220038c0.0146945,0 0.0266087,0.0119142 0.0266087,0.0266087 0,0.0146945 -0.0119142,0.0266087 -0.0266087,0.0266087"/>
  <line class="fil0 str0" x1="0.22265" y1="0.00107331" x2="0.22265" y2= "0.0646101" />
  <path class="fil0 str0" d="M0.300946 0.113603c0.0146945,0 0.0266087,-0.0119142 0.0266087,-0.0266087 0,-0.0146945 -0.0119142,-0.0266087 -0.0266087,-0.0266087"/>
  <path class="fil0 str0" d="M0.300946 0.113603c0.0146945,0 0.0266087,0.0119142 0.0266087,0.0266087 0,0.0146945 -0.0119142,0.0266087 -0.0266087,0.0266087"/>
  <path class="fil0 str0" d="M0.300946 0.220038c0.0146945,0 0.0266087,-0.0119142 0.0266087,-0.0266087 0,-0.0146945 -0.0119142,-0.0266087 -0.0266087,-0.0266087"/>
  <path class="fil0 str0" d="M0.300946 0.220038c0.0146945,0 0.0266087,0.0119142 0.0266087,0.0266087 0,0.0146945 -0.0119142,0.0266087 -0.0266087,0.0266087"/>
  <line class="fil0 str0" x1="0.30267" y1="0.00107331" x2="0.30267" y2= "0.0646101" />
  <path class="fil0 str0" d="M0.378108 0.113603c0.0146945,0 0.0266087,-0.0119142 0.0266087,-0.0266087 0,-0.0146945 -0.0119142,-0.0266087 -0.0266087,-0.0266087"/>
  <path class="fil0 str0" d="M0.378108 0.113603c0.0146945,0 0.0266087,0.0119142 0.0266087,0.0266087 0,0.0146945 -0.0119142,0.0266087 -0.0266087,0.0266087"/>
  <path class="fil0 str0" d="M0.378108 0.220038c0.0146945,0 0.0266087,-0.0119142 0.0266087,-0.0266087 0,-0.0146945 -0.0119142,-0.0266087 -0.0266087,-0.0266087"/>
  <path class="fil0 str0" d="M0.378108 0.220038c0.0146945,0 0.0266087,0.0119142 0.0266087,0.0266087 0,0.0146945 -0.0119142,0.0266087 -0.0266087,0.0266087"/>
  <line class="fil0 str0" x1="0.379832" y1="0.00107331" x2="0.379832" y2= "0.0646101" />
  <polyline class="fil0 str0" points="0.380108,0.269729 0.376125,0.332861 0.197024,0.332861 0.199559,0.0587607 0.222396,0.0587607 "/>
  <polyline class="fil0 str0" points="0.221715,0.269234 0.221146,0.305291 0.259259,0.305412 0.274484,0.0580409 0.303739,0.0580409 "/>
  <polyline class="fil0 str0" points="0.300412,0.268544 0.299105,0.305739 0.33762,0.304968 0.352974,0.0580409 0.382229,0.0580409 "/>
  <rect class="fil0" width="0.637001" height="0.637001"/>
 </g>
</svg>
