<?xml version="1.0" encoding="UTF-8"?>
<!DOCTYPE svg PUBLIC "-//W3C//DTD SVG 1.1//EN" "http://www.w3.org/Graphics/SVG/1.1/DTD/svg11.dtd">
<!-- Creator: CorelDRAW -->
<svg xmlns="http://www.w3.org/2000/svg" xml:space="preserve" width="46px" height="46px" style="shape-rendering:geometricPrecision; text-rendering:geometricPrecision; image-rendering:optimizeQuality; fill-rule:evenodd; clip-rule:evenodd"
viewBox="0 0 1.02366 1.02583"
 xmlns:xlink="http://www.w3.org/1999/xlink">
 <defs>
  <style type="text/css">
   <![CDATA[
    .str1 {stroke:#1F1A17;stroke-width:0.0444817}
    .str0 {stroke:#1F1A17;stroke-width:0.0423733}
    .fil0 {fill:none}
    .fil1 {fill:#1F1A17}
   ]]>
  </style>
 </defs>
 <g id="图层_x0020_1">
  <metadata id="CorelCorpID_0Corel-Layer"/>
  <g id="_276079296">
   <g>
    <g>
     <path id="_276079368" class="fil0 str0" d="M0.497724 0.187081c0.12623,0 0.228601,0.10237 0.228601,0.228605 0,0.12623 -0.10237,0.228601 -0.228601,0.228601 -0.126235,0 -0.228605,-0.10237 -0.228605,-0.228601 0,-0.126235 0.10237,-0.228605 0.228605,-0.228605z"/>
    </g>
    <g>
     <path id="_275847792" class="fil0 str0" d="M0.497724 0.542579c0.12623,0 0.228601,0.10237 0.228601,0.228605 0,0.12623 -0.10237,0.228601 -0.228601,0.228601 -0.126235,0 -0.228605,-0.10237 -0.228605,-0.228601 0,-0.126235 0.10237,-0.228605 0.228605,-0.228605z"/>
    </g>
    <rect class="fil1" x="0.474945" width="0.0455493" height="0.173523"/>
    <polyline class="fil0 str1" points="0.392129,0.299309 0.505802,0.409392 0.611099,0.302898 "/>
    <line class="fil0 str1" x1="0.503409" y1="0.408196" x2="0.503409" y2= "0.538616" />
    <polyline class="fil0 str1" points="0.392129,0.655888 0.505802,0.765971 0.611099,0.659478 "/>
    <line class="fil0 str1" x1="0.503409" y1="0.764775" x2="0.503409" y2= "0.895195" />
    <line class="fil0 str1" x1="0.622344" y1="0.767306" x2="0.491924" y2= "0.767306" />
   </g>
   <rect class="fil0" y="0.00217071" width="1.02366" height="1.02366"/>
  </g>
 </g>
</svg>
