<?xml version="1.0" encoding="UTF-8"?>
<!DOCTYPE svg PUBLIC "-//W3C//DTD SVG 1.1//EN" "http://www.w3.org/Graphics/SVG/1.1/DTD/svg11.dtd">
<!-- Creator: CorelDRAW -->
<svg xmlns="http://www.w3.org/2000/svg" xml:space="preserve" width="46px" height="46px" style="shape-rendering:geometricPrecision; text-rendering:geometricPrecision; image-rendering:optimizeQuality; fill-rule:evenodd; clip-rule:evenodd"
viewBox="0 0 0.39877 0.39877"
 xmlns:xlink="http://www.w3.org/1999/xlink">
 <defs>
  <style type="text/css">
   <![CDATA[
    .str0 {stroke:#1F1A17;stroke-width:0.0097824}
    .fil0 {fill:none}
   ]]>
  </style>
 </defs>
 <g id="图层_x0020_1">
  <metadata id="CorelCorpID_0Corel-Layer"/>
  <g id="_305360528">
   <path id="_302910176" class="fil0 str0" d="M0.13444 0.0731332c0.00907318,0 0.0164295,-0.00735637 0.0164295,-0.0164295 0,-0.00907318 -0.00735637,-0.0164247 -0.0164295,-0.0164247"/>
   <path id="_302233448" class="fil0 str0" d="M0.13444 0.0731332c0.00907318,0 0.0164295,0.00735637 0.0164295,0.0164295 0,0.00906829 -0.00735637,0.0164247 -0.0164295,0.0164247"/>
   <path id="_304164232" class="fil0 str0" d="M0.13444 0.138842c0.00907318,0 0.0164295,-0.00735147 0.0164295,-0.0164247 0,-0.00907318 -0.00735637,-0.0164295 -0.0164295,-0.0164295"/>
   <path id="_304164304" class="fil0 str0" d="M0.13444 0.138842c0.00907318,0 0.0164295,0.00735637 0.0164295,0.0164295 0,0.00907318 -0.00735637,0.0164295 -0.0164295,0.0164295"/>
   <line id="_65997104" class="fil0 str0" x1="0.135506" y1="0.00365862" x2="0.135506" y2= "0.042886" />
   <line id="_304160200" class="fil0 str0" x1="0.135506" y1="0.170238" x2="0.135506" y2= "0.192801" />
   <path id="_304161352" class="fil0 str0" d="M0.183841 0.0731332c0.00907318,0 0.0164295,-0.00735637 0.0164295,-0.0164295 0,-0.00907318 -0.00735637,-0.0164247 -0.0164295,-0.0164247"/>
   <path id="_304159432" class="fil0 str0" d="M0.183841 0.0731332c0.00907318,0 0.0164295,0.00735637 0.0164295,0.0164295 0,0.00906829 -0.00735637,0.0164247 -0.0164295,0.0164247"/>
   <path id="_304163368" class="fil0 str0" d="M0.183841 0.138842c0.00907318,0 0.0164295,-0.00735147 0.0164295,-0.0164247 0,-0.00907318 -0.00735637,-0.0164295 -0.0164295,-0.0164295"/>
   <path id="_304164448" class="fil0 str0" d="M0.183841 0.138842c0.00907318,0 0.0164295,0.00735637 0.0164295,0.0164295 0,0.00907318 -0.00735637,0.0164295 -0.0164295,0.0164295"/>
   <line id="_304164520" class="fil0 str0" x1="0.184907" y1="0.00365862" x2="0.184907" y2= "0.042886" />
   <line id="_304164736" class="fil0 str0" x1="0.184907" y1="0.170238" x2="0.184907" y2= "0.192801" />
   <path id="_304188752" class="fil0 str0" d="M0.231481 0.0731332c0.00907318,0 0.0164295,-0.00735637 0.0164295,-0.0164295 0,-0.00907318 -0.00735637,-0.0164247 -0.0164295,-0.0164247"/>
   <path id="_304187600" class="fil0 str0" d="M0.231481 0.0731332c0.00907318,0 0.0164295,0.00735637 0.0164295,0.0164295 0,0.00906829 -0.00735637,0.0164247 -0.0164295,0.0164247"/>
   <path id="_304164712" class="fil0 str0" d="M0.231481 0.138842c0.00907318,0 0.0164295,-0.00735147 0.0164295,-0.0164247 0,-0.00907318 -0.00735637,-0.0164295 -0.0164295,-0.0164295"/>
   <path id="_302116856" class="fil0 str0" d="M0.231481 0.138842c0.00907318,0 0.0164295,0.00735637 0.0164295,0.0164295 0,0.00907318 -0.00735637,0.0164295 -0.0164295,0.0164295"/>
   <line id="_304157848" class="fil0 str0" x1="0.232547" y1="0.00365862" x2="0.232547" y2= "0.042886" />
   <line id="_304158592" class="fil0 str0" x1="0.232547" y1="0.170238" x2="0.232547" y2= "0.192801" />
   <line id="_304158952" class="fil0 str0" x1="0.232758" y1="0.190561" x2="0.137061" y2= "0.190561" />
   <path id="_302233232" class="fil0 str0" d="M0.13444 0.324448c0.00907318,0 0.0164295,0.00735637 0.0164295,0.0164295 0,0.00907318 -0.00735637,0.0164247 -0.0164295,0.0164247"/>
   <path id="_302235920" class="fil0 str0" d="M0.13444 0.324448c0.00907318,0 0.0164295,-0.00735637 0.0164295,-0.0164295 0,-0.00906829 -0.00735637,-0.0164247 -0.0164295,-0.0164247"/>
   <path id="_302910560" class="fil0 str0" d="M0.13444 0.25874c0.00907318,0 0.0164295,0.00735147 0.0164295,0.0164247 0,0.00907318 -0.00735637,0.0164295 -0.0164295,0.0164295"/>
   <path id="_302912960" class="fil0 str0" d="M0.13444 0.25874c0.00907318,0 0.0164295,-0.00735637 0.0164295,-0.0164295 0,-0.00907318 -0.00735637,-0.0164295 -0.0164295,-0.0164295"/>
   <line id="_302911496" class="fil0 str0" x1="0.135506" y1="0.393923" x2="0.135506" y2= "0.354695" />
   <path id="_302910968" class="fil0 str0" d="M0.183841 0.324448c0.00907318,0 0.0164295,0.00735637 0.0164295,0.0164295 0,0.00907318 -0.00735637,0.0164247 -0.0164295,0.0164247"/>
   <path id="_304187384" class="fil0 str0" d="M0.183841 0.324448c0.00907318,0 0.0164295,-0.00735637 0.0164295,-0.0164295 0,-0.00906829 -0.00735637,-0.0164247 -0.0164295,-0.0164247"/>
   <path id="_304186688" class="fil0 str0" d="M0.183841 0.25874c0.00907318,0 0.0164295,0.00735147 0.0164295,0.0164247 0,0.00907318 -0.00735637,0.0164295 -0.0164295,0.0164295"/>
   <path id="_304189856" class="fil0 str0" d="M0.183841 0.25874c0.00907318,0 0.0164295,-0.00735637 0.0164295,-0.0164295 0,-0.00907318 -0.00735637,-0.0164295 -0.0164295,-0.0164295"/>
   <line id="_304188008" class="fil0 str0" x1="0.184907" y1="0.393923" x2="0.184907" y2= "0.354695" />
   <path id="_304161616" class="fil0 str0" d="M0.231481 0.324448c0.00907318,0 0.0164295,0.00735637 0.0164295,0.0164295 0,0.00907318 -0.00735637,0.0164247 -0.0164295,0.0164247"/>
   <path id="_304160416" class="fil0 str0" d="M0.231481 0.324448c0.00907318,0 0.0164295,-0.00735637 0.0164295,-0.0164295 0,-0.00906829 -0.00735637,-0.0164247 -0.0164295,-0.0164247"/>
   <path id="_304157512" class="fil0 str0" d="M0.231481 0.25874c0.00907318,0 0.0164295,0.00735147 0.0164295,0.0164247 0,0.00907318 -0.00735637,0.0164295 -0.0164295,0.0164295"/>
   <path id="_304163992" class="fil0 str0" d="M0.231481 0.25874c0.00907318,0 0.0164295,-0.00735637 0.0164295,-0.0164295 0,-0.00907318 -0.00735637,-0.0164295 -0.0164295,-0.0164295"/>
   <line id="_304157608" class="fil0 str0" x1="0.232547" y1="0.393923" x2="0.232547" y2= "0.354695" />
   <line id="_304163320" class="fil0 str0" x1="0.26433" y1="0.225553" x2="0.137061" y2= "0.225553" />
   <line id="_302060984" class="fil0 str0" x1="0.262736" y1="0.344844" x2="0.262736" y2= "0.223097" />
  </g>
  <rect class="fil0" width="0.39877" height="0.39877"/>
 </g>
</svg>
