<?xml version="1.0" encoding="UTF-8"?>
<!DOCTYPE svg PUBLIC "-//W3C//DTD SVG 1.1//EN" "http://www.w3.org/Graphics/SVG/1.1/DTD/svg11.dtd">
<!-- Creator: CorelDRAW -->
<svg xmlns="http://www.w3.org/2000/svg" xml:space="preserve" width="46px" height="46px" style="shape-rendering:geometricPrecision; text-rendering:geometricPrecision; image-rendering:optimizeQuality; fill-rule:evenodd; clip-rule:evenodd"
viewBox="0 0 0.387636 0.394748"
 xmlns:xlink="http://www.w3.org/1999/xlink">
 <defs>
  <style type="text/css">
   <![CDATA[
    .str1 {stroke:#1F1A17;stroke-width:0.00700911}
    .str0 {stroke:#1F1A17;stroke-width:0.00934548}
    .fil0 {fill:none}
   ]]>
  </style>
 </defs>
 <g id="图层_x0020_1">
  <metadata id="CorelCorpID_0Corel-Layer"/>
  <polygon class="fil0 str0" points="0.0540753,0.150743 0.0699439,0.157317 0.0858102,0.163892 0.0923847,0.179758 0.0989592,0.195627 0.0923847,0.211495 0.0858102,0.227361 0.0699439,0.233936 0.0540753,0.24051 0.0382066,0.233936 0.0223404,0.227361 0.0157658,0.211495 0.00919128,0.195627 0.0157658,0.179758 0.0223404,0.163892 0.0382066,0.157317 "/>
  <line class="fil0 str1" x1="0.0546033" y1="0.13222" x2="0.0546033" y2= "0.25872" />
  <polygon class="fil0 str0" points="0.177104,0.150743 0.192972,0.157317 0.208839,0.163892 0.215413,0.179758 0.221988,0.195627 0.215413,0.211495 0.208839,0.227361 0.192972,0.233936 0.177104,0.24051 0.161235,0.233936 0.145369,0.227361 0.138794,0.211495 0.13222,0.195627 0.138794,0.179758 0.145369,0.163892 0.161235,0.157317 "/>
  <line class="fil0 str1" x1="0.177632" y1="0.0634114" x2="0.177632" y2= "0.327529" />
  <polygon class="fil0 str0" points="0.301191,0.150743 0.317059,0.157317 0.332926,0.163892 0.3395,0.179758 0.346075,0.195627 0.3395,0.211495 0.332926,0.227361 0.317059,0.233936 0.301191,0.24051 0.285322,0.233936 0.269456,0.227361 0.262881,0.211495 0.256307,0.195627 0.262881,0.179758 0.269456,0.163892 0.285322,0.157317 "/>
  <line class="fil0 str1" x1="0.301719" y1="0.13222" x2="0.301719" y2= "0.25872" />
  <line class="fil0 str1" x1="0.122192" y1="0.176151" x2="0.0994873" y2= "0.209495" />
  <line class="fil0 str1" x1="0.134337" y1="0.176151" x2="0.111632" y2= "0.209495" />
  <line class="fil0 str1" x1="0.246805" y1="0.176151" x2="0.2241" y2= "0.209495" />
  <line class="fil0 str1" x1="0.258949" y1="0.176151" x2="0.236244" y2= "0.209495" />
  <line class="fil0 str1" x1="0.370892" y1="0.176151" x2="0.348187" y2= "0.209495" />
  <line class="fil0 str1" x1="0.383036" y1="0.176151" x2="0.360331" y2= "0.209495" />
  <rect class="fil0" width="0.387636" height="0.394748"/>
 </g>
</svg>
