<?xml version="1.0" encoding="UTF-8"?>
<!DOCTYPE svg PUBLIC "-//W3C//DTD SVG 1.1//EN" "http://www.w3.org/Graphics/SVG/1.1/DTD/svg11.dtd">
<!-- Creator: CorelDRAW -->
<svg xmlns="http://www.w3.org/2000/svg" xml:space="preserve" width="46px" height="46px" style="shape-rendering:geometricPrecision; text-rendering:geometricPrecision; image-rendering:optimizeQuality; fill-rule:evenodd; clip-rule:evenodd"
viewBox="0 0 0.471734 0.471516"
 xmlns:xlink="http://www.w3.org/1999/xlink">
 <defs>
  <style type="text/css">
   <![CDATA[
    .str0 {stroke:#1F1A17;stroke-width:0.0076908}
    .fil0 {fill:none}
   ]]>
  </style>
 </defs>
 <g id="图层_x0020_1">
  <metadata id="CorelCorpID_0Corel-Layer"/>
  <path class="fil0 str0" d="M0.02476 0.23598c-0.0109451,0 -0.0198181,-0.00887299 -0.0198181,-0.0198159 0,-0.0108308 0.00868841,-0.0198159 0.0194753,-0.0198159l0.0689557 -2.19737e-006 -6.59212e-006 -0.0997915 0.378313 -6.59212e-006"/>
  <path class="fil0 str0" d="M0.02476 0.237936c-0.0109451,0 -0.0198181,0.00887299 -0.0198181,0.0198159 0,0.0108308 0.00868841,0.0198159 0.0194753,0.0198159l0.0689557 2.19737e-006 -6.59212e-006 0.0532621 0.378313 6.59212e-006"/>
  <line class="fil0 str0" x1="0.022701" y1="0.00216002" x2="0.022701" y2= "0.363716" />
  <line class="fil0 str0" x1="0.189218" y1="0.00216002" x2="0.189218" y2= "0.363716" />
  <line class="fil0 str0" x1="0.356888" y1="0.00216002" x2="0.356888" y2= "0.363716" />
  <path class="fil0 str0" d="M0.18782 0.235404c-0.0109451,0 -0.0198181,-0.00887299 -0.0198181,-0.0198159 0,-0.0108308 0.00868841,-0.0198159 0.0194753,-0.0198159l0.0689557 -2.19737e-006 -6.59212e-006 -0.0501221 0.21407 -6.59212e-006"/>
  <path class="fil0 str0" d="M0.18782 0.23736c-0.0109451,0 -0.0198181,0.00887299 -0.0198181,0.0198159 0,0.0108308 0.00868841,0.0198159 0.0194753,0.0198159l0.0689557 2.19737e-006 -6.59212e-006 0.0532621 0.214028 6.59212e-006"/>
  <path class="fil0 str0" d="M0.354748 0.235404c-0.0109451,0 -0.0198181,-0.00887299 -0.0198181,-0.0198159 0,-0.0108308 0.00868841,-0.0198159 0.0194753,-0.0198159l0.117329 -2.19737e-006"/>
  <path class="fil0 str0" d="M0.354748 0.23736c-0.0109451,0 -0.0198181,0.00887299 -0.0198181,0.0198159 0,0.0108308 0.00868841,0.0198159 0.0194753,0.0198159l0.0689557 2.19737e-006 -6.59212e-006 0.0532621 0.0475006 6.59212e-006"/>
  <rect class="fil0" width="0.471516" height="0.471516"/>
 </g>
</svg>
