<?xml version="1.0" encoding="UTF-8"?>
<!DOCTYPE svg PUBLIC "-//W3C//DTD SVG 1.1//EN" "http://www.w3.org/Graphics/SVG/1.1/DTD/svg11.dtd">
<!-- Creator: CorelDRAW -->
<svg xmlns="http://www.w3.org/2000/svg" xml:space="preserve" width="46px" height="46px" style="shape-rendering:geometricPrecision; text-rendering:geometricPrecision; image-rendering:optimizeQuality; fill-rule:evenodd; clip-rule:evenodd"
viewBox="0 0 0.362191 0.362191"
 xmlns:xlink="http://www.w3.org/1999/xlink">
 <defs>
  <style type="text/css">
   <![CDATA[
    .str1 {stroke:#1F1A17;stroke-width:0.00635601}
    .str0 {stroke:#1F1A17;stroke-width:0.00847468}
    .fil0 {fill:none}
   ]]>
  </style>
 </defs>
 <g id="图层_x0020_1">
  <metadata id="CorelCorpID_0Corel-Layer"/>
  <polygon class="fil0 str0" points="0.0554689,0.0476531 0.0698589,0.053615 0.0842468,0.059577 0.0902087,0.0739649 0.0961706,0.0883549 0.0902087,0.102745 0.0842468,0.117133 0.0698589,0.123095 0.0554689,0.129057 0.0410789,0.123095 0.026691,0.117133 0.0207291,0.102745 0.0147671,0.0883549 0.0207291,0.0739649 0.026691,0.059577 0.0410789,0.053615 "/>
  <line class="fil0 str1" x1="0.0559477" y1="0.00136019" x2="0.0559477" y2= "0.24299" />
  <line class="fil0 str1" x1="0.118675" y1="0.0706936" x2="0.0980859" y2= "0.100931" />
  <line class="fil0 str1" x1="0.129688" y1="0.0706936" x2="0.109099" y2= "0.100931" />
  <polygon class="fil0 str0" points="0.0554689,0.111722 0.0698589,0.117684 0.0842468,0.123646 0.0902087,0.138033 0.0961706,0.152423 0.0902087,0.166813 0.0842468,0.181201 0.0698589,0.187163 0.0554689,0.193125 0.0410789,0.187163 0.026691,0.181201 0.0207291,0.166813 0.0147671,0.152423 0.0207291,0.138033 0.026691,0.123646 0.0410789,0.117684 "/>
  <line class="fil0 str1" x1="0.118675" y1="0.134762" x2="0.0980859" y2= "0.165" />
  <line class="fil0 str1" x1="0.129688" y1="0.134762" x2="0.109099" y2= "0.165" />
  <polygon class="fil0 str0" points="0.166674,0.0476531 0.181064,0.053615 0.195451,0.059577 0.201413,0.0739649 0.207375,0.0883549 0.201413,0.102745 0.195451,0.117133 0.181064,0.123095 0.166674,0.129057 0.152284,0.123095 0.137896,0.117133 0.131934,0.102745 0.125972,0.0883549 0.131934,0.0739649 0.137896,0.059577 0.152284,0.053615 "/>
  <line class="fil0 str1" x1="0.167152" y1="0.00136019" x2="0.167152" y2= "0.24299" />
  <line class="fil0 str1" x1="0.22988" y1="0.0706936" x2="0.209291" y2= "0.100931" />
  <line class="fil0 str1" x1="0.240893" y1="0.0706936" x2="0.220303" y2= "0.100931" />
  <polygon class="fil0 str0" points="0.166674,0.111722 0.181064,0.117684 0.195451,0.123646 0.201413,0.138033 0.207375,0.152423 0.201413,0.166813 0.195451,0.181201 0.181064,0.187163 0.166674,0.193125 0.152284,0.187163 0.137896,0.181201 0.131934,0.166813 0.125972,0.152423 0.131934,0.138033 0.137896,0.123646 0.152284,0.117684 "/>
  <line class="fil0 str1" x1="0.22988" y1="0.134762" x2="0.209291" y2= "0.165" />
  <line class="fil0 str1" x1="0.240893" y1="0.134762" x2="0.220303" y2= "0.165" />
  <polygon class="fil0 str0" points="0.277878,0.0476531 0.292268,0.053615 0.306656,0.059577 0.312618,0.0739649 0.31858,0.0883549 0.312618,0.102745 0.306656,0.117133 0.292268,0.123095 0.277878,0.129057 0.263488,0.123095 0.2491,0.117133 0.243138,0.102745 0.237177,0.0883549 0.243138,0.0739649 0.2491,0.059577 0.263488,0.053615 "/>
  <line class="fil0 str1" x1="0.278357" y1="0.00136019" x2="0.278357" y2= "0.24299" />
  <line class="fil0 str1" x1="0.341085" y1="0.0706936" x2="0.320495" y2= "0.100931" />
  <line class="fil0 str1" x1="0.352097" y1="0.0706936" x2="0.331508" y2= "0.100931" />
  <polygon class="fil0 str0" points="0.277878,0.111722 0.292268,0.117684 0.306656,0.123646 0.312618,0.138033 0.31858,0.152423 0.312618,0.166813 0.306656,0.181201 0.292268,0.187163 0.277878,0.193125 0.263488,0.187163 0.2491,0.181201 0.243138,0.166813 0.237177,0.152423 0.243138,0.138033 0.2491,0.123646 0.263488,0.117684 "/>
  <line class="fil0 str1" x1="0.341085" y1="0.134762" x2="0.320495" y2= "0.165" />
  <line class="fil0 str1" x1="0.352097" y1="0.134762" x2="0.331508" y2= "0.165" />
  <rect class="fil0" width="0.362191" height="0.362191"/>
 </g>
</svg>
