<?xml version="1.0" encoding="UTF-8"?>
<!DOCTYPE svg PUBLIC "-//W3C//DTD SVG 1.1//EN" "http://www.w3.org/Graphics/SVG/1.1/DTD/svg11.dtd">
<!-- Creator: CorelDRAW -->
<svg xmlns="http://www.w3.org/2000/svg" xml:space="preserve" width="46px" height="46px" style="shape-rendering:geometricPrecision; text-rendering:geometricPrecision; image-rendering:optimizeQuality; fill-rule:evenodd; clip-rule:evenodd"
viewBox="0 0 0.273521 0.273521"
 xmlns:xlink="http://www.w3.org/1999/xlink">
 <defs>
  <style type="text/css">
   <![CDATA[
    .str0 {stroke:#1F1A17;stroke-width:0.00954647}
    .fil0 {fill:none}
   ]]>
  </style>
 </defs>
 <g id="图层_x0020_1">
  <metadata id="CorelCorpID_0Corel-Layer"/>
  <path class="fil0 str0" d="M0.0591022 0.200058c0.000269688,0 0.0603409,-4.77324e-006 0.060601,-9.54647e-006 0.0168758,-0.000441524 0.0304342,-0.0148877 0.0304342,-0.0326251 0,-0.0180214 -0.0139904,-0.032637 -0.0312408,-0.032637m-0.0548325 -0.0652692c0.000269688,0 0.0553791,4.77324e-006 0.0556392,9.54647e-006 0.0168758,0.000441524 0.0304342,0.0148877 0.0304342,0.0326251 0,0.0180214 -0.0139904,0.0326346 -0.0312408,0.0326346"/>
  <line class="fil0 str0" x1="0.0641595" y1="0.000293554" x2="0.0641595" y2= "0.0742381" />
  <line class="fil0 str0" x1="0.0641595" y1="0.198443" x2="0.0641595" y2= "0.272387" />
  <path class="fil0 str0" d="M0.272626 0.200058c-0.000269688,0 -0.0553791,-4.77324e-006 -0.0556392,-9.54647e-006 -0.0168758,-0.000441524 -0.0304342,-0.0148877 -0.0304342,-0.0326251 0,-0.0180214 0.0139904,-0.032637 0.0312408,-0.032637m0.0548325 -0.0652692c-0.000269688,0 -0.0553791,4.77324e-006 -0.0556392,9.54647e-006 -0.0168758,0.000441524 -0.0304342,0.0148877 -0.0304342,0.0326251 0,0.0180214 0.0139904,0.0326346 0.0312408,0.0326346"/>
  <rect class="fil0" width="0.273521" height="0.273521"/>
 </g>
</svg>
