<?xml version="1.0" encoding="UTF-8"?>
<!DOCTYPE svg PUBLIC "-//W3C//DTD SVG 1.1//EN" "http://www.w3.org/Graphics/SVG/1.1/DTD/svg11.dtd">
<!-- Creator: CorelDRAW -->
<svg xmlns="http://www.w3.org/2000/svg" xml:space="preserve" width="46px" height="46px" style="shape-rendering:geometricPrecision; text-rendering:geometricPrecision; image-rendering:optimizeQuality; fill-rule:evenodd; clip-rule:evenodd"
viewBox="0 0 0.881464 0.883446"
 xmlns:xlink="http://www.w3.org/1999/xlink">
 <defs>
  <style type="text/css">
   <![CDATA[
    .str1 {stroke:#1F1A17;stroke-width:0.00901169}
    .str0 {stroke:#1F1A17;stroke-width:0.0120156}
    .fil0 {fill:none}
    .fil1 {fill:#1F1A17;fill-rule:nonzero}
   ]]>
  </style>
 </defs>
 <g id="图层_x0020_1">
  <metadata id="CorelCorpID_0Corel-Layer"/>
  <rect class="fil0 str0" x="0.321735" y="0.298062" width="0.229257" height="0.351456"/>
  <line class="fil0 str1" x1="0.440732" y1="0.000937216" x2="0.440732" y2= "0.294989" />
  <line class="fil0 str1" x1="0.440732" y1="0.652107" x2="0.440732" y2= "0.883446" />
  <line class="fil0 str1" x1="0.552035" y1="0.409831" x2="0.320696" y2= "0.409831" />
  <path class="fil1" d="M0.421324 0.51403l-0.000303394 -0.000375487c-0.000390507,0.0029318 -0.000678881,0.00475817 -0.000880142,0.00549112 -0.000796033,0.00291678 -0.0057074,0.0233913 -0.0147672,0.0613997l-0.00590867 0 -0.0168338 -0.0734723 0.00621206 0c0.00669268,0.0324241 0.0109222,0.0525261 0.0126885,0.0603243 0,0.000483627 0.000402522,0.00266746 0.00118354,0.00656652 0.00118354,-0.00511564 0.00187744,-0.00803242 0.00206668,-0.00876537 0.00196755,-0.00878039 0.0064013,-0.0281495 0.0132922,-0.0581254l0.00619704 0c0.00807448,0.0360738 0.0124992,0.0561759 0.0132922,0.0603243 0,0 0.000189246,0.000844095 0.000591768,0.00255932 0.000393511,0.00218083 0.000681885,0.00364974 0.000883146,0.00438269l0.000291378 0c0.000201261,-0.00268248 0.000591768,-0.00499248 0.00118354,-0.00694201 0.000982274,-0.00488133 0.00521477,-0.0249834 0.0126975,-0.0603243l0.00620004 0 -0.0174256 0.0734723 -0.00560527 0c-0.00748271,-0.0333763 -0.0121087,-0.0537277 -0.013884,-0.0610422 -0.000189246,-0.00170021 -0.000579752,-0.00352357 -0.00117152,-0.0054731z"/>
  <path id="1" class="fil1" d="M0.506427 0.580185l-0.00562029 0 0 -0.0328897c0.000204265,-0.0109792 -0.00364072,-0.0163292 -0.0115139,-0.0160949 -0.00846799,0.000249323 -0.0129919,0.00658154 -0.0135836,0.0190117l0 0.0299729 -0.0053169 0 0 -0.0738298 0.0053169 0 0 0.0310663c0.00296184,-0.00731149 0.00807748,-0.0112105 0.0153589,-0.0116942 0.0104325,-0.000249323 0.0155482,0.00668968 0.0153589,0.020835l0 0.0336226z"/>
  <rect class="fil0" width="0.881464" height="0.881464"/>
 </g>
</svg>
